<svg width="17" height="16" viewBox="0 0 17 16" fill="none" xmlns="http://www.w3.org/2000/svg">
<path d="M8.5 14C11.8137 14 14.5 11.3137 14.5 8C14.5 4.68629 11.8137 2 8.5 2C5.18629 2 2.5 4.68629 2.5 8C2.5 11.3137 5.18629 14 8.5 14Z" stroke="#0080FF" stroke-width="1.2" stroke-linecap="round" stroke-linejoin="round"/>
<path d="M8.5 11H8.50533" stroke="#0080FF" stroke-width="1.2" stroke-linecap="round" stroke-linejoin="round"/>
<path d="M6.75403 6.2C6.89509 5.799 7.17352 5.46086 7.54 5.24548C7.90648 5.0301 8.33737 4.95136 8.75633 5.02323C9.1753 5.09509 9.55532 5.31291 9.82907 5.63812C10.1028 5.96332 10.2527 6.37491 10.252 6.8C10.252 8 8.45203 8.6 8.45203 8.6" stroke="#0080FF" stroke-width="1.2" stroke-linecap="round" stroke-linejoin="round"/>
</svg>
